<svg xmlns="http://www.w3.org/2000/svg" width="20" height="20" fill="none" viewBox="0 0 20 20"><path fill="#801ED7" fill-rule="evenodd" d="M9.994 3.097c-1.95-1.704-4.834-2.052-7.073-.139-2.422 2.07-2.774 5.555-.859 8.02.663.853 1.896 2.091 3.131 3.27A145 145 0 0 0 8.57 17.35l.018.016c.135.121.27.242.396.337.14.106.313.216.532.282.31.093.648.093.958 0 .22-.066.393-.176.533-.282.125-.095.26-.216.396-.337l.018-.016a145 145 0 0 0 3.375-3.104c1.236-1.178 2.469-2.416 3.131-3.269 1.909-2.455 1.611-5.968-.867-8.027-2.264-1.882-5.117-1.558-7.065.146m-.633 1.725c-1.42-1.662-3.68-2.03-5.357-.597-1.753 1.498-1.989 3.976-.626 5.73.576.742 1.721 1.9 2.965 3.086a143 143 0 0 0 3.335 3.066c.161.144.246.22.312.269l.004.003.005-.003c.065-.05.15-.125.311-.269.82-.732 2.105-1.892 3.335-3.066 1.245-1.187 2.39-2.344 2.965-3.085 1.371-1.764 1.152-4.253-.616-5.723-1.723-1.432-3.952-1.065-5.366.589a.833.833 0 0 1-1.267 0m-.135 1.43a.83.83 0 0 1 .731.568l1.03 3.091.351-.7a.83.83 0 0 1 .745-.461h.834a.833.833 0 0 1 0 1.667h-.319l-1.02 2.039a.833.833 0 0 1-1.535-.11l-1.03-3.09-.351.7a.83.83 0 0 1-.745.46h-.834a.833.833 0 0 1 0-1.666h.319l1.02-2.04a.83.83 0 0 1 .804-.458" clip-rule="evenodd"/></svg>