<svg xmlns="http://www.w3.org/2000/svg" width="24" height="24" fill="none" viewBox="0 0 24 24"><path fill="#801ED7" fill-rule="evenodd" d="M3.505 3.55c2.687-2.296 6.148-1.878 8.488.167 2.337-2.046 5.76-2.434 8.478-.176 2.973 2.471 3.33 6.686 1.04 9.633-.794 1.023-2.274 2.509-3.757 3.923-1.5 1.43-3.058 2.839-4.05 3.724l-.022.02c-.162.145-.325.29-.475.403-.168.128-.375.26-.64.339a2 2 0 0 1-1.149 0c-.263-.08-.47-.21-.639-.338a8 8 0 0 1-.475-.404l-.022-.02c-.992-.885-2.55-2.294-4.05-3.724-1.483-1.414-2.962-2.9-3.757-3.923C.176 10.216.598 6.034 3.505 3.55m8.444 4.634a1 1 0 0 0-1.843-.131L8.882 10.5H8.5a1 1 0 1 0 0 2h1a1 1 0 0 0 .894-.553l.42-.84 1.237 3.71a1 1 0 0 0 1.843.13l1.224-2.447h.382a1 1 0 1 0 0-2h-1a1 1 0 0 0-.894.553l-.42.84z" clip-rule="evenodd"/></svg>