<svg width="16" height="16" viewBox="0 0 16 16" fill="none" xmlns="http://www.w3.org/2000/svg">
<path fill-rule="evenodd" clip-rule="evenodd" d="M2.33672 2.36648C4.12826 0.835749 6.43523 1.11472 7.99516 2.47798C9.55334 1.1142 11.8357 0.855013 13.6472 2.36063C15.6296 4.00829 15.8677 6.81834 14.3411 8.78267C13.8111 9.46472 12.8248 10.4551 11.8362 11.3979C10.8366 12.3512 9.79747 13.2904 9.13606 13.8807L9.12142 13.8937C9.01304 13.9905 8.90464 14.0872 8.80471 14.163C8.69238 14.2482 8.55446 14.3358 8.37852 14.3886C8.13044 14.463 7.86041 14.463 7.61233 14.3886C7.4364 14.3358 7.29848 14.2482 7.18614 14.163C7.08622 14.0872 6.97786 13.9905 6.86948 13.8938L6.85479 13.8807C6.19338 13.2904 5.15427 12.3512 4.1546 11.3979C3.16601 10.4551 2.17976 9.46472 1.64972 8.78267C0.117309 6.81076 0.398862 4.02223 2.33672 2.36648ZM7.96578 5.45586C7.88052 5.20005 7.64955 5.0208 7.38059 5.00168C7.11162 4.98257 6.85763 5.12736 6.73704 5.36853L5.92131 7.00001H5.66666C5.29847 7.00001 5 7.29848 5 7.66667C5 8.03486 5.29847 8.33334 5.66666 8.33334H6.33333C6.58584 8.33334 6.81669 8.19067 6.92961 7.96482L7.20983 7.40438L8.03421 9.87749C8.11947 10.1333 8.35044 10.3125 8.6194 10.3317C8.88837 10.3508 9.14236 10.206 9.26295 9.96482L10.0787 8.33334H10.3333C10.7015 8.33334 11 8.03486 11 7.66667C11 7.29848 10.7015 7.00001 10.3333 7.00001H9.66666C9.41415 7.00001 9.18331 7.14268 9.07038 7.36853L8.79016 7.92897L7.96578 5.45586Z" fill="#801ED7"/>
</svg>
