<svg width="20" height="20" viewBox="0 0 20 20" fill="none" xmlns="http://www.w3.org/2000/svg">
<path fill-rule="evenodd" clip-rule="evenodd" d="M2.92091 2.9581C5.16033 1.04469 8.04404 1.3934 9.99396 3.09747C11.9417 1.39275 14.7946 1.06877 17.059 2.95079C19.537 5.01037 19.8346 8.52293 17.9264 10.9783C17.2639 11.8309 16.0311 13.0689 14.7953 14.2474C13.5457 15.439 12.2468 16.6131 11.4201 17.3508L11.4018 17.3672C11.2663 17.4881 11.1308 17.609 11.0059 17.7037C10.8655 17.8102 10.6931 17.9198 10.4732 17.9858C10.1631 18.0788 9.82552 18.0788 9.51542 17.9858C9.2955 17.9198 9.1231 17.8102 8.98268 17.7037C8.85778 17.609 8.72233 17.4881 8.58685 17.3672L8.56849 17.3508C7.74172 16.6131 6.44284 15.439 5.19325 14.2474C3.95752 13.0689 2.7247 11.8309 2.06216 10.9783C0.14664 8.51346 0.498582 5.02778 2.92091 2.9581ZM9.95723 6.81982C9.85065 6.50007 9.56194 6.276 9.22574 6.25211C8.88953 6.22821 8.57204 6.4092 8.42131 6.71067L7.40164 8.75001H7.08333C6.62309 8.75001 6.25 9.12311 6.25 9.58334C6.25 10.0436 6.62309 10.4167 7.08333 10.4167H7.91666C8.23231 10.4167 8.52086 10.2383 8.66202 9.95602L9.0123 9.25547L10.0428 12.3469C10.1493 12.6666 10.4381 12.8907 10.7743 12.9146C11.1105 12.9385 11.428 12.7575 11.5787 12.456L12.5984 10.4167H12.9167C13.3769 10.4167 13.75 10.0436 13.75 9.58334C13.75 9.12311 13.3769 8.75001 12.9167 8.75001H12.0833C11.7677 8.75001 11.4791 8.92835 11.338 9.21067L10.9877 9.91122L9.95723 6.81982Z" fill="#801ED7"/>
</svg>
