<svg width="20" height="20" viewBox="0 0 20 20" fill="none" xmlns="http://www.w3.org/2000/svg">
<path fill-rule="evenodd" clip-rule="evenodd" d="M9.99397 3.09749C8.04405 1.39342 5.16034 1.04471 2.92092 2.95811C0.498593 5.0278 0.146652 8.51347 2.06217 10.9784C2.72471 11.8309 3.95753 13.069 5.19327 14.2474C6.44286 15.439 7.74174 16.6131 8.56851 17.3508L8.58682 17.3672C8.72231 17.4881 8.85777 17.609 8.98269 17.7038C9.12311 17.8102 9.29551 17.9198 9.51543 17.9858C9.82553 18.0788 10.1631 18.0788 10.4732 17.9858C10.6931 17.9198 10.8655 17.8102 11.0059 17.7038C11.1308 17.609 11.2663 17.4881 11.4018 17.3672L11.4201 17.3508C12.2469 16.6131 13.5457 15.439 14.7953 14.2474C16.0311 13.069 17.2639 11.8309 17.9264 10.9784C19.8346 8.52294 19.537 5.01039 17.059 2.95081C14.7946 1.06878 11.9417 1.39277 9.99397 3.09749ZM9.36103 4.82152C7.94014 3.16039 5.68157 2.79153 4.00358 4.22524C2.25082 5.72284 2.01497 8.20149 3.37817 9.95565C3.95387 10.6965 5.09901 11.8545 6.34348 13.0412C7.5741 14.2148 8.85769 15.3751 9.67818 16.1073C9.83942 16.2512 9.92447 16.3262 9.98965 16.3757C9.99125 16.3769 9.9928 16.378 9.9943 16.3792C9.99579 16.378 9.99734 16.3769 9.99894 16.3757C10.0641 16.3262 10.1492 16.2512 10.3104 16.1073C11.1309 15.3751 12.4145 14.2148 13.6451 13.0412C14.8896 11.8545 16.0347 10.6965 16.6104 9.95565C17.981 8.19202 17.7625 5.70273 15.9937 4.23255C14.2712 2.80094 12.0422 3.16773 10.6276 4.82152C10.4692 5.00662 10.2379 5.11318 9.9943 5.11318C9.75073 5.11318 9.51935 5.00662 9.36103 4.82152ZM9.22575 6.2521C9.56195 6.27599 9.85065 6.50006 9.95724 6.81981L10.9877 9.91121L11.338 9.21066C11.4791 8.92834 11.7677 8.75 12.0833 8.75H12.9167C13.3769 8.75 13.75 9.1231 13.75 9.58333C13.75 10.0436 13.3769 10.4167 12.9167 10.4167H12.5984L11.5787 12.456C11.428 12.7575 11.1105 12.9385 10.7743 12.9146C10.4381 12.8907 10.1494 12.6666 10.0428 12.3469L9.0123 9.25546L8.66203 9.95601C8.52087 10.2383 8.23231 10.4167 7.91667 10.4167H7.08334C6.6231 10.4167 6.25 10.0436 6.25 9.58333C6.25 9.1231 6.6231 8.75 7.08334 8.75H7.40164L8.42131 6.71066C8.57205 6.40919 8.88954 6.2282 9.22575 6.2521Z" fill="#801ED7"/>
</svg>
