<svg width="16" height="16" viewBox="0 0 16 16" fill="none" xmlns="http://www.w3.org/2000/svg">
<path fill-rule="evenodd" clip-rule="evenodd" d="M7.99517 2.47799C6.43524 1.11473 4.12826 0.835763 2.33673 2.36649C0.39887 4.02224 0.117317 6.81078 1.64973 8.78268C2.17977 9.46473 3.16602 10.4552 4.15461 11.3979C5.15428 12.3512 6.19339 13.2905 6.8548 13.8807L6.86945 13.8937C6.97784 13.9905 7.08622 14.0872 7.18615 14.163C7.29848 14.2482 7.4364 14.3358 7.61234 14.3886C7.86042 14.463 8.13045 14.463 8.37853 14.3886C8.55446 14.3358 8.69238 14.2482 8.80472 14.163C8.90465 14.0872 9.01302 13.9905 9.12141 13.8938L9.13607 13.8807C9.79748 13.2905 10.8366 12.3512 11.8363 11.3979C12.8248 10.4552 13.8111 9.46473 14.3411 8.78268C15.8677 6.81835 15.6296 4.00831 13.6472 2.36064C11.8357 0.855026 9.55335 1.11421 7.99517 2.47799ZM7.48882 3.85722C6.35211 2.52831 4.54526 2.23322 3.20286 3.38019C1.80065 4.57827 1.61197 6.56119 2.70253 7.96452C3.16309 8.55716 4.0792 9.48358 5.07478 10.433C6.05928 11.3718 7.08615 12.3001 7.74254 12.8858C7.87153 13.0009 7.93957 13.061 7.99172 13.1005C7.993 13.1015 7.99424 13.1024 7.99543 13.1033C7.99663 13.1024 7.99787 13.1015 7.99915 13.1005C8.0513 13.061 8.11933 13.0009 8.24832 12.8858C8.90472 12.3001 9.93159 11.3718 10.9161 10.433C11.9117 9.48358 12.8278 8.55716 13.2883 7.96452C14.3848 6.55361 14.21 4.56218 12.7949 3.38604C11.417 2.24075 9.63373 2.53418 8.50205 3.85722C8.37539 4.00529 8.19029 4.09054 7.99543 4.09054C7.80058 4.09054 7.61548 4.00529 7.48882 3.85722ZM7.38059 5.00168C7.64955 5.02079 7.88052 5.20004 7.96579 5.45585L8.79016 7.92896L9.07038 7.36852C9.18331 7.14267 9.41415 7 9.66667 7H10.3333C10.7015 7 11 7.29848 11 7.66667C11 8.03486 10.7015 8.33333 10.3333 8.33333H10.0787L9.26295 9.96481C9.14236 10.206 8.88837 10.3508 8.61941 10.3317C8.35044 10.3125 8.11948 10.1333 8.03421 9.87748L7.20984 7.40437L6.92962 7.96481C6.81669 8.19066 6.58585 8.33333 6.33333 8.33333H5.66667C5.29848 8.33333 5 8.03486 5 7.66667C5 7.29848 5.29848 7 5.66667 7H5.92131L6.73705 5.36852C6.85764 5.12735 7.11163 4.98256 7.38059 5.00168Z" fill="#801ED7"/>
</svg>
