<svg width="24" height="24" viewBox="0 0 24 24" fill="none" xmlns="http://www.w3.org/2000/svg">
<path fill-rule="evenodd" clip-rule="evenodd" d="M11.9928 3.71699C9.65286 1.6721 6.1924 1.25364 3.5051 3.54974C0.598307 6.03336 0.175977 10.2162 2.4746 13.174C3.26965 14.1971 4.74903 15.6827 6.23191 17.0969C7.73142 18.5268 9.29008 19.9357 10.2822 20.821L10.3042 20.8406C10.4668 20.9857 10.6293 21.1309 10.7792 21.2445C10.9477 21.3723 11.1546 21.5038 11.4185 21.5829C11.7906 21.6946 12.1957 21.6946 12.5678 21.5829C12.8317 21.5038 13.0386 21.3723 13.2071 21.2445C13.357 21.1309 13.5195 20.9858 13.6821 20.8406L13.7041 20.821C14.6962 19.9357 16.2549 18.5268 17.7544 17.0969C19.2373 15.6827 20.7166 14.1971 21.5117 13.174C23.8015 10.2275 23.4444 6.01246 20.4708 3.54097C17.7536 1.28254 14.33 1.67132 11.9928 3.71699ZM11.2332 5.78583C9.52816 3.79246 6.81788 3.34983 4.80429 5.07029C2.70098 6.86741 2.41796 9.84179 4.0538 11.9468C4.74464 12.8357 6.1188 14.2254 7.61217 15.6495C9.08892 17.0578 10.6292 18.4502 11.6138 19.3288C11.8073 19.5014 11.9094 19.5915 11.9876 19.6508C11.9895 19.6523 11.9914 19.6537 11.9932 19.655C11.9949 19.6537 11.9968 19.6523 11.9987 19.6508C12.0769 19.5915 12.179 19.5014 12.3725 19.3288C13.3571 18.4502 14.8974 17.0578 16.3741 15.6495C17.8675 14.2254 19.2417 12.8357 19.9325 11.9468C21.5772 9.83042 21.315 6.84328 19.1924 5.07906C17.1255 3.36113 14.4506 3.80127 12.7531 5.78583C12.5631 6.00794 12.2854 6.13581 11.9932 6.13581C11.7009 6.13581 11.4232 6.00794 11.2332 5.78583ZM11.0709 7.50252C11.4743 7.53119 11.8208 7.80007 11.9487 8.18377L13.1852 11.8934L13.6056 11.0528C13.775 10.714 14.1212 10.5 14.5 10.5H15.5C16.0523 10.5 16.5 10.9477 16.5 11.5C16.5 12.0523 16.0523 12.5 15.5 12.5H15.118L13.8944 14.9472C13.7135 15.309 13.3326 15.5262 12.9291 15.4975C12.5257 15.4688 12.1792 15.1999 12.0513 14.8162L10.8148 11.1066L10.3944 11.9472C10.225 12.286 9.87877 12.5 9.5 12.5H8.5C7.94772 12.5 7.5 12.0523 7.5 11.5C7.5 10.9477 7.94772 10.5 8.5 10.5H8.88197L10.1056 8.05279C10.2865 7.69102 10.6674 7.47384 11.0709 7.50252Z" fill="#801ED7"/>
</svg>
